<svg xmlns="http://www.w3.org/2000/svg" xml:space="preserve" stroke-miterlimit="10" style="fill-rule:nonzero;clip-rule:evenodd;stroke-linecap:round;stroke-linejoin:round" viewBox="0 0 128 128.13"><clipPath id="a"><path d="M0 0h128v128.13H0z"/></clipPath><g clip-path="url(#a)"><path d="M31.391 95.84 0 64.448 32.288 32.16 64.577 0l31.647 31.776L128 63.552 96.224 95.327l-31.647 31.904-1.025.897-.897-.897L31.39 95.84Zm56.505-56.505L65.474 16.913 57.4 24.729l-7.944 7.816 15.376 15.503 15.503 15.504-15.888 15.887-15.76 15.888 6.92 7.176 7.047 7.047 23.832-23.832 23.959-23.832-22.55-22.55ZM45.1 68.805l6.919-7.047-14.863-14.863-6.15 6.022-6.278 6.022-2.435 2.69 2.435 2.691 5.637 5.766 6.791 6.407 3.075-2.82c2.221-2.135 3.844-3.758 4.87-4.868Z"/></g></svg>