<svg viewBox="0 0 17.333 3.721" xmlns="http://www.w3.org/2000/svg"><defs><path id="b" d="M97.507 306.79h291.332v140.315H97.507z"/><path id="a" d="M45.186 165.286h494.67V347.22H45.186z"/><path id="c" d="M97.507 306.79h291.332v140.315H97.507z"/><path id="d" d="M97.507 306.79h291.332v140.315H97.507z"/></defs><g aria-label="play" transform="matrix(.26458 0 0 .26458 -15.475 -83.172)" style="white-space:pre;shape-inside:url(#b)"><path d="M100.057 315.08q-.059-.024-.13-.036-.064-.012-.134-.012-.158 0-.299.047-.135.047-.21.106v1.693q-.007-.006-.013-.006v.006l.13.065q.158.082.333.181.182.094.358.194.076.046.117.046.053 0 .053-.07-.047.018-.059.018-.012 0-.012-.006 0-.012.059-.059.111-.1.223-.252.111-.158.181-.369.076-.217.076-.48v-.036q0-.117-.052-.263-.053-.153-.14-.3-.083-.151-.212-.274-.123-.123-.27-.194zm-1.91.134q-.018-.023-.036-.035-.017-.012-.023-.012-.018 0-.035.018-.018.017-.018.047v.011q0 .018.006.024.006 0 .006.006.018-.012.1-.059zm.193.85-1.008-.616.527-1.03q.405.081.686.11.287.024.562.059.323-.041.528-.076.205-.041.726-.14.112.034.252.122.147.082.31.223.17.135.335.322.17.188.275.41.094.188.117.393.024.2.024.351 0 .3-.088.534-.082.228-.217.404-.123.158-.281.293-.153.135-.31.246-.153.105-.305.17-.147.064-.305.07l-.885-.398v1.26q0 .187.012.38.017.194.058.37.041.17.112.298.076.123.41.31l-.785.259-1.313-.78q.381-.087.44-.152.058-.07.088-.182.029-.11.035-.246.012-.134.012-.257v-2.245q0-.263-.012-.462zM102.523 315.02q-.006-.005-.105-.005-.152 0-.527.046l.322-.703 1.488.276v4.095q0 .211.018.475.017.258.064.38h.985q.21 0 .439-.034.229-.041.422-.182.2-.14.357-.422.159-.281.276-1.13.31.439.369.527.058.088.17.246-.123.44-.252.85-.123.404-.264.896h-2.8l-1.395-.838q.433 0 .422.006.076-.03.129-.088.052-.064.082-.17.029-.105.035-.234.012-.13.012-.281v-2.385q0-.14-.012-.358-.006-.222-.035-.433-.03-.217-.082-.358-.053-.146-.118-.175zM109.186 315.278q-.03-.064-.047-.082-.024-.023-.047-.023l-.018.018q-.023.017-.023.052 0 .035.017.047.018.012.024.012h.064q0-.006.03-.024zm.486.71-.867 2.226h1.699zm-.668-.053-.809-.487.522-1.084q.433.07.78.123.35.053.737.118l1.922 5.144q.053.123.381.346-.21.105-.287.135-.07.035-.146.064-.094.035-.27.094-.264-.135-.445-.246l-.364-.223q-.076-.04-.152-.088-.07-.053-.346-.234.334-.082.381-.106l.059-.035-.194-.533h-2.267l-.399 1.008q-.064.134-.123.217-.058.076-.152.152t-.228.076q-.153 0-.27-.064-.117-.06-.305-.176l.182-.182q.123 0 .205-.076.082-.076.17-.275l.814-2.104.3-.78.263-.685q.023-.053.04-.1zM113.51 315.22q-.03-.035-.03-.041-.011-.012-.023-.012t-.035.024q-.012.011-.012.04v.012q0 .018.006.024.006 0 .006.006l.088-.053zm.17.246.14.656-1.119-.674.574-1.095q.252.058.364.088l.216.046q.106.024.217.053l.31.065 1.15 1.986q.18-.334.527-.92.345-.592.703-1.23h.82l-.486.685q-.334.568-.616 1.025l-.234.387q-.111.193-.205.352l-.158.263q-.059.106-.065.112v1.488q0 .193.012.393.012.193.053.369.04.17.111.298.076.13.434.329-.328.082-.393.1-.059.023-.123.04-.064.018-.129.041-.058.03-.152.065-.258-.14-.428-.246-.17-.112-.352-.223l-.521-.305q.37-.093.428-.146.064-.059.1-.147.035-.093.046-.222.012-.13.012-.276v-1.172q-.334-.656-.61-1.136-.269-.48-.45-.78l-.176-.27z" /></g><g aria-label="PATH" transform="matrix(.32274 0 0 .32274 -30.713 -99.564)" style="white-space:pre;shape-inside:url(#c)"><path d="m100.69 319.503-3.493-1.172v-.123q.358-.457.358-1.073v-6.826h-.118q-.96.176-.96.715-.13 0-.715-1.435-.076 0-.598-.715h6.1q2.601 0 2.988 3.181-.176 2.907-4.184 2.965v3.158zm1.001-7.225q-.21-1.969-1.388-1.969h-.955v.117l.72.24v3.288q1.594-.07 1.623-1.676z"/><path d="M104.352 315.46q.316-1.64.697-4.002h.181q3.334-2.426 3.334-2.96h.346q1.008 2.11 2.274 8.913l.328 1.547h-3.3l.352-.78-.304-1.582q-.774.258-1.541.37-.281 1.716.844 3.058l-3.551-1.066-.34.193q0-.193-.182-.193.205-.434.492-1.688-.714.147-1.324.387l.545-2.191q.592.011 1.149-.006zm3.591-.498-.609-3.17q-.252.562-.521 3.427.597-.105 1.13-.257zM115.438 310.637v.065q-.007 7.84.515 7.969l-3.146.51.117-2.186v-5.813q-.035-.375-.112-.662-.855.2-2.566.803.984-1.09 1.19-2.408.556.006 1.054.006h3.252v.006h.082q.498 0 1.055-.006.205 1.318 1.19 2.408-1.712-.604-2.567-.803-.018.07-.035.153z"/><path d="m118.479 312.887-.006-3.843 2.794-.012-.27.639v3.187l1.583-.017-.006-3.797 2.795-.012-.27.639v7.629q.118 1.248.036 2.7l-2.907-1.025v-.123q.358-.457.358-1.072l-.006-3.44q-.867.065-1.582.182v1.547q.117 1.248.035 2.701l-2.906-1.025v-.123q.357-.457.357-1.072v-1.172q-.516.369-.656.861l-1.131-3.328z"/></g><g aria-label="tools" transform="matrix(.26458 0 0 .26458 -15.475 -81.048)" style="white-space:pre;shape-inside:url(#d)"><path d="M102.002 315.255q.006-.018.006-.035v-.018q-.006-.058-.018-.064-.029-.012-.076-.012-.03 0-.064.006l-1.19.205q-.023.012-.052.035-.03.018-.06.094-.022.076-.04.264-.018.187-.018.498v2.525q0 .193.012.393.012.193.047.363.04.17.111.293.07.117.17.176l.252.158-.78.246q-.234-.123-.374-.211-.14-.094-.305-.187-.094-.065-.2-.118-.099-.052-.427-.263l.322-.07q.077-.018.123-.077.053-.064.077-.164.029-.1.029-.24.006-.147.006-.299v-2.525q0-.31-.018-.498-.017-.188-.047-.264-.023-.076-.052-.094-.024-.023-.065-.035l-1.16-.205q-.03-.006-.059-.006-.04 0-.07.012-.017.006-.023.064v.018q0 .017.006.035.052-.012.181-.065l.2.938-1.114-.68.557-1.084 2.139.223 2.15-.223.562 1.084-1.119.674.2-.932q.128.053.181.065zM104.047 317.364q0 .252.047.545.052.287.146.58.094.287.246.551.159.258.364.457.21.193.474.31.27.112.604.112.65 0 1.06-.41.17-.176.293-.41.13-.235.205-.475.077-.246.106-.486.035-.24.035-.451 0-.522-.152-1.002-.153-.48-.422-.838-.264-.358-.621-.563-.358-.21-.774-.21-.44 0-.744.204-.299.2-.498.534-.193.334-.281.75-.088.41-.088.802zm1.535-2.789q.053-.017.188-.04.134-.03.293-.06.158-.035.322-.058t.345-.059q.106.07.247.17.14.1.334.27.199.164.41.38.216.212.41.464.2.252.346.539.152.281.21.568.036.182.047.363.018.182.018.334 0 .246-.047.557-.047.31-.176.639-.123.328-.34.632-.21.305-.539.557-.322.252-.779.399-.451.146-1.037.146-.662 0-1.195-.205-.528-.205-.897-.58-.363-.381-.55-.897-.188-.521-.188-1.148 0-.557.14-1.025.141-.475.452-.85.31-.375.802-.65.493-.276 1.184-.446zM110.088 317.364q0 .252.047.545.052.287.146.58.094.287.246.551.159.258.364.457.21.193.474.31.27.112.604.112.65 0 1.06-.41.17-.176.293-.41.13-.235.205-.475.077-.246.106-.486.035-.24.035-.451 0-.522-.152-1.002-.153-.48-.422-.838-.264-.358-.621-.563-.358-.21-.774-.21-.44 0-.744.204-.299.2-.498.534-.193.334-.281.75-.088.41-.088.802zm1.535-2.789q.053-.017.188-.04.134-.03.293-.06.158-.035.322-.058t.345-.059q.106.07.247.17.14.1.334.27.199.164.41.38.217.212.41.464.2.252.346.539.152.281.21.568.036.182.047.363.018.182.018.334 0 .246-.047.557-.047.31-.176.639-.123.328-.34.632-.21.305-.539.557-.322.252-.779.399-.451.146-1.037.146-.662 0-1.195-.205-.528-.205-.897-.58-.363-.381-.55-.897-.188-.521-.188-1.148 0-.557.14-1.025.141-.475.452-.85.31-.375.802-.65.493-.276 1.184-.446zM115.643 315.02q-.006-.005-.106-.005-.152 0-.527.046l.322-.703 1.488.276v4.095q0 .211.018.475.018.258.064.38h.985q.21 0 .44-.034.228-.041.421-.182.2-.14.357-.422.159-.281.276-1.13.31.439.369.527.059.088.17.246-.123.44-.252.85-.123.404-.264.896h-2.8l-1.395-.838q.434 0 .422.006.076-.03.129-.088.052-.064.082-.17.029-.105.035-.234.012-.13.012-.281v-2.385q0-.14-.012-.358-.006-.222-.035-.433-.03-.217-.082-.358-.053-.146-.117-.175zM123.576 314.892l.03.363q.017.146.029.287.011.076.017.164.012.088.024.229l-.451.293q-.112-.422-.188-.604-.07-.182-.17-.293-.1-.117-.258-.176-.158-.064-.41-.064-.1 0-.234.03-.13.023-.24.099-.112.07-.194.199-.082.123-.082.328 0 .193.088.357.088.159.235.3.152.14.357.269.205.123.428.234.275.13.521.276.252.146.445.334.2.187.329.433.128.24.146.58v.035q0 .282-.193.563-.194.281-.451.527-.258.24-.51.428-.246.182-.446.305l-1.84-.715q-.099-.387-.181-.697l-.24-.932.386.223q.06.035.135.082.082.047.082.093.229.528.574.78.352.246.85.246.14 0 .334-.07.2-.077.322-.212.117-.152.147-.287.03-.134.03-.287-.019-.14-.106-.258-.088-.123-.229-.228-.14-.106-.334-.211-.187-.105-.392-.217-.258-.129-.516-.293-.252-.164-.451-.375-.2-.217-.323-.48-.123-.264-.123-.586 0-.065.006-.14l.024-.159q.047-.24.287-.451.246-.217.527-.381.287-.17.545-.287.258-.117.44-.182z"/></g></svg>