<svg xmlns="http://www.w3.org/2000/svg" xml:space="preserve" stroke-miterlimit="10" style="fill-rule:nonzero;clip-rule:evenodd;stroke-linecap:round;stroke-linejoin:round" viewBox="0 0 157.94 128.131"><clipPath id="a"><path d="M0 0h157.94v128.131H0z"/></clipPath><g clip-path="url(#a)"><path d="m28.05 112.116 59.317-36.129-7.56 28.954 5.253-2.178a282.53 282.53 0 0 0 11.146-5.38c4.612-2.477 8.072-4.698 10.378-6.662 9.822-8.541 14.797-17.53 14.925-26.969.128-9.437-4.505-18.683-13.9-27.736-4.527-4.356-9.14-7.772-13.837-10.25-4.783-2.476-10.292-4.27-16.527-5.38-5.978-1.025-13.452-1.538-22.42-1.538-12.384 0-22.42 1.132-30.107 3.396-7.686 2.263-14.52 6.128-20.498 11.594C1.83 36.058.462 37.19.12 37.233c-.341.043.043-.961 1.154-3.01 2.306-4.271 6.128-8.606 11.466-13.004 5.338-4.399 11.466-8.221 18.384-11.467 7.175-3.416 14.221-5.85 21.14-7.302C63.536.058 75.066-.582 86.853.528c11.274 1.025 21.844 3.523 31.708 7.495 9.865 3.971 18.086 9.032 24.662 15.181 6.919 6.406 11.403 13.452 13.452 21.14 1.879 6.917 1.666 13.793-.64 20.626-2.135 6.49-5.979 12.597-11.531 18.32-5.551 5.722-12.384 10.676-20.498 14.861-8.114 4.185-16.954 7.303-26.52 9.353l-14.86 3.202 11.658 17.424-66.236-16.014Z"/></g></svg>