<svg xmlns="http://www.w3.org/2000/svg" xml:space="preserve" stroke-miterlimit="10" style="fill-rule:nonzero;clip-rule:evenodd;stroke-linecap:round;stroke-linejoin:round" viewBox="0 0 267.66 128.13"><clipPath id="a"><path d="M0 0h267.66v128.13H0z"/></clipPath><g clip-path="url(#a)"><path d="M48.819 113.01 33.828 97.89l16.784-16.912 16.913-16.913-16.913-16.913L33.828 30.24 64.066.001 95.97 32.033l32.032 32.032-64.064 64.064-15.12-15.119Zm85.077-6.919-13.71-12.94 14.094-14.095 15.888-15.76-1.666-1.794-13.709-13.837-13.838-13.838L134.28 20.5l13.197-13.453 54.327 54.326 1.666 1.794-1.666 1.794-27.035 27.035-27.163 26.907-13.71-12.813Zm78.158-9.61-10.25-10.25 23.191-22.935-11.916-12.044-12.044-12.044 21.141-21.397 45.486 45.229-21.782 21.91-21.782 21.782-.897 1.025-1.025-1.025-10.122-10.25ZM10.636 74.7.002 64.065 11.02 52.918l11.147-11.02 23.191 22.936-10.25 10.25-12.044 12.685-12.429-13.07Z"/></g></svg>