<svg xmlns="http://www.w3.org/2000/svg"  xml:space="preserve" stroke-miterlimit="10" style="fill-rule:nonzero;clip-rule:evenodd;stroke-linecap:round;stroke-linejoin:round" viewBox="0 0 203.47 128.13"><clipPath id="a"><path d="M0 0h203.47v128.13H0z"/></clipPath><g clip-path="url(#a)"><path d="m48.818 113.011-14.992-15.12 16.785-16.913 16.914-16.913L50.61 47.152 33.826 30.239 64.065 0l31.904 32.032 32.033 32.033-64.065 64.065-15.12-15.119Zm85.078-6.919-13.71-12.942 14.094-14.094 15.888-15.76-1.665-1.794-13.71-13.838-13.838-13.838 13.325-13.325 13.198-13.454 54.327 54.327 1.665 1.794-1.665 1.794-27.036 27.035-27.163 26.908-13.71-12.813ZM10.635 74.7 0 64.065l11.02-11.147 11.146-11.02 23.192 22.936-10.25 10.25L23.063 87.77l-12.428-13.07Z"/></g></svg>